# xmcd CD database file
#
# Track frame offsets:
#	150
#	29109
#	58898
#	85262
#	106320
#	127855
#	157867
#	188406
#	207505
#	245557
#	264070
#
# Disc length: 3805 seconds
#
# Revision: 0
# Processed by: cddbd v1.5.2PL0 Copyright (c) Steve Scherf et al.
# Submitted via: CDex 1.70beta2
#
DISCID=8d0edb0b
DTITLE=Eric Johnson - Supahighway
DYEAR=2008
DGENRE=Jazz
TTITLE0=La Petite Mambo
TTITLE1=Laughter in the Rain
TTITLE2=A Day in the Life
TTITLE3=Love on a Two Way Street
TTITLE4=Put on a Happy Face
TTITLE5=Deja Vu
TTITLE6=Hurts So Bad
TTITLE7=Supahighway
TTITLE8=My Cherie Amor
TTITLE9=For the Love of You Pt. 1
TTITLE10=For the Love of You Pt. 2
EXTD=YEAR: 2008
EXTT0=
EXTT1=
EXTT2=
EXTT3=
EXTT4=
EXTT5=
EXTT6=
EXTT7=
EXTT8=
EXTT9=
EXTT10=
PLAYORDER=
